<?xml version="1.0" standalone="no"?>
<!DOCTYPE svg PUBLIC "-//W3C//DTD SVG 20010904//EN"
 "http://www.w3.org/TR/2001/REC-SVG-20010904/DTD/svg10.dtd">
<svg version="1.0" xmlns="http://www.w3.org/2000/svg"
 width="452.000000pt" height="452.000000pt" viewBox="0 0 452.000000 452.000000"
 preserveAspectRatio="xMidYMid meet">
<metadata>
Created by potrace 1.11, written by Peter Selinger 2001-2013
</metadata>
<g transform="translate(0.000000,452.000000) scale(0.100000,-0.100000)"
fill="#000000" stroke="none">
<path d="M1320 4239 c-44 -18 -65 -77 -43 -121 33 -67 123 -65 158 3 22 41 5
93 -35 114 -33 17 -45 18 -80 4z"/>
<path d="M3118 4235 c-33 -18 -52 -72 -39 -108 22 -58 98 -75 145 -32 14 13
27 30 27 37 5 51 -14 91 -48 107 -31 14 -52 13 -85 -4z"/>
<path d="M1325 3971 c-90 -37 -67 -171 29 -171 99 0 125 137 33 170 -34 12
-35 12 -62 1z"/>
<path d="M3124 3969 c-48 -24 -64 -100 -29 -139 58 -64 155 -26 157 61 2 57
-76 104 -128 78z"/>
<path d="M4107 3960 c-23 -18 -40 -53 -52 -106 -18 -84 -158 -555 -180 -608
-9 -20 -18 -36 -22 -36 -3 0 -31 21 -62 46 -75 62 -127 87 -179 86 -67 -1
-107 -34 -215 -179 -67 -90 -71 -92 -132 -50 -28 20 -124 96 -135 107 -3 3
-34 30 -70 60 -35 30 -73 63 -85 73 -11 10 -41 32 -67 49 -58 37 -130 42 -175
13 -46 -31 -169 -159 -335 -350 -47 -55 -102 -115 -122 -134 l-35 -34 -109 42
c-60 24 -125 43 -145 43 -23 0 -60 -13 -99 -35 -35 -19 -85 -47 -113 -62 -27
-15 -72 -40 -100 -55 l-50 -27 -125 44 c-69 24 -181 64 -250 89 -192 69 -215
64 -330 -79 -36 -44 -77 -95 -92 -112 l-28 -32 -152 43 c-173 50 -225 54 -271
22 -52 -35 -226 -221 -269 -286 -27 -40 -23 -79 11 -113 48 -48 85 -41 146 27
27 31 84 92 125 135 l75 79 140 -40 c245 -71 260 -69 366 53 39 45 83 99 98
119 14 21 33 38 42 38 8 0 71 -21 140 -46 283 -104 352 -125 392 -119 42 6
125 45 260 124 l87 50 103 -41 c121 -49 176 -55 230 -25 40 22 126 112 313
327 60 69 123 139 140 157 31 31 32 31 60 14 16 -10 54 -40 84 -67 249 -225
373 -294 467 -263 41 13 80 53 166 166 34 46 66 83 71 83 9 0 91 -64 111 -86
27 -30 104 -74 135 -77 68 -8 87 7 135 107 24 50 60 145 80 211 45 145 124
421 131 452 2 12 9 34 14 49 30 77 15 145 -36 164 -38 15 -59 12 -87 -10z"/>
<path d="M1325 3701 c-68 -29 -77 -122 -15 -160 57 -34 126 1 135 68 7 57 -67
114 -120 92z"/>
<path d="M3122 3693 c-53 -26 -63 -100 -18 -141 52 -49 129 -22 146 51 7 34 5
42 -18 68 -33 35 -69 42 -110 22z"/>
<path d="M1335 3432 c-31 -6 -63 -41 -67 -74 -9 -60 60 -120 115 -99 104 40
60 197 -48 173z"/>
<path d="M3144 3432 c-34 -5 -66 -46 -67 -86 -2 -80 99 -121 150 -61 60 69 7
161 -83 147z"/>
<path d="M1291 3134 c-60 -76 8 -174 99 -142 32 11 53 46 53 90 0 71 -108 108
-152 52z"/>
<path d="M3106 2868 c-48 -43 -36 -123 21 -147 74 -30 146 36 120 112 -19 58
-94 76 -141 35z"/>
<path d="M1301 2603 c-31 -26 -42 -74 -24 -110 41 -85 152 -61 169 36 4 21
-23 69 -45 81 -30 15 -76 12 -100 -7z"/>
<path d="M3118 2609 c-38 -22 -54 -79 -33 -119 27 -53 105 -63 143 -20 37 43
28 115 -17 140 -25 13 -71 12 -93 -1z"/>
<path d="M1308 2334 c-55 -29 -53 -121 3 -149 55 -29 102 -14 124 39 35 84
-46 154 -127 110z"/>
<path d="M3118 2339 c-56 -32 -55 -129 1 -159 59 -31 142 19 133 80 -7 47 -15
61 -42 75 -33 17 -67 19 -92 4z"/>
<path d="M1313 2068 c-33 -16 -53 -64 -42 -102 12 -41 44 -66 86 -66 88 0 121
125 43 165 -33 17 -56 18 -87 3z"/>
<path d="M3118 2065 c-24 -14 -38 -36 -44 -74 -4 -21 23 -69 45 -81 29 -15 73
-12 98 8 54 41 42 130 -19 151 -39 14 -47 13 -80 -4z"/>
<path d="M1301 1783 c-63 -59 -29 -153 55 -153 89 0 122 117 45 163 -41 24
-66 21 -100 -10z"/>
<path d="M3118 1795 c-24 -14 -38 -36 -44 -74 -2 -8 4 -27 12 -42 43 -84 164
-55 164 38 -1 45 -16 68 -54 83 -35 13 -45 12 -78 -5z"/>
<path d="M1325 1531 c-95 -39 -63 -180 40 -173 87 7 109 129 30 166 -37 18
-41 18 -70 7z"/>
<path d="M3124 1524 c-36 -18 -53 -47 -48 -87 8 -80 117 -108 160 -41 51 77
-30 169 -112 128z"/>
<path d="M1335 1263 c-29 -7 -46 -24 -60 -57 -36 -85 69 -159 136 -97 42 37
46 84 11 121 -29 30 -55 40 -87 33z"/>
<path d="M3135 1260 c-29 -11 -52 -41 -59 -77 -6 -26 -2 -37 22 -64 65 -73
165 -20 152 81 -5 40 -74 76 -115 60z"/>
<path d="M1322 985 c-56 -24 -73 -97 -33 -139 31 -33 65 -40 106 -20 103 49
32 203 -73 159z"/>
<path d="M3128 981 c-61 -30 -71 -95 -22 -142 75 -70 188 28 130 114 -27 40
-65 50 -108 28z"/>
<path d="M3144 719 c-61 -17 -87 -78 -56 -131 43 -73 162 -45 164 39 2 63 -51
107 -108 92z"/>
<path d="M1295 695 c-73 -72 16 -191 104 -139 36 21 52 53 45 91 -11 68 -101
97 -149 48z"/>
<path d="M1295 424 c-13 -14 -27 -34 -30 -44 -6 -18 -32 -18 -517 -18 -488 0
-511 -1 -536 -19 -38 -28 -48 -68 -28 -109 9 -19 27 -39 42 -44 16 -6 752 -10
2040 -10 l2016 0 29 29 c43 44 38 105 -12 135 -28 17 -70 18 -536 18 l-505 0
-10 28 c-27 79 -135 80 -167 1 l-13 -29 -808 0 -808 0 -13 29 c-25 63 -101 80
-144 33z"/>
</g>
</svg>
